<svg width="1920" height="635" viewBox="0 0 1920 635" fill="none" xmlns="http://www.w3.org/2000/svg">
<path opacity="0.5" d="M0 0H1920V635H0V0Z" fill="#FFDDD9"/>
<g clip-path="url(#clip0)">
<path d="M1.52539 614.538L181.845 534.631C257.263 501.211 343.114 500.319 419.208 532.166L499.334 565.7C573.947 596.927 658.008 596.703 732.453 565.078L798.701 536.935C880.136 502.341 972.802 506.151 1051.12 547.314V547.314C1131.81 589.72 1227.57 592.42 1310.51 554.626L1359.77 532.181C1430.07 500.151 1510.01 496.472 1582.95 521.912L1848.54 614.538" stroke="#FFDDD9" stroke-width="2"/>
<path d="M-0.00585938 624.619L180.314 544.712C255.731 511.292 341.582 510.4 417.677 542.247L497.803 575.782C572.416 607.008 656.477 606.784 730.922 575.159L797.169 547.016C878.604 512.422 971.271 516.232 1049.59 557.395V557.395C1130.27 599.801 1226.04 602.501 1308.98 564.707L1358.24 542.262C1428.54 510.232 1508.48 506.553 1581.42 531.993L1847.01 624.619" stroke="#FFDDD9" stroke-width="2"/>
<path d="M-0.00585938 644.619L180.314 564.712C255.731 531.292 341.582 530.4 417.677 562.247L497.803 595.782C572.416 627.008 656.477 626.784 730.922 595.159L797.169 567.016C878.604 532.422 971.271 536.232 1049.59 577.395V577.395C1130.27 619.801 1226.04 622.501 1308.98 584.707L1358.24 562.262C1428.54 530.232 1508.48 526.553 1581.42 551.993L1847.01 644.619" stroke="#FFDDD9" stroke-width="2"/>
<path d="M-0.00585938 666.619L180.314 586.712C255.731 553.292 341.582 552.4 417.677 584.247L497.803 617.782C572.416 649.008 656.477 648.784 730.922 617.159L797.169 589.016C878.604 554.422 971.271 558.232 1049.59 599.395V599.395C1130.27 641.801 1226.04 644.501 1308.98 606.707L1358.24 584.262C1428.54 552.232 1508.48 548.553 1581.42 573.993L1847.01 666.619" stroke="#FFDDD9" stroke-width="2"/>
<path d="M-0.00585938 706.619L180.314 626.712C255.731 593.292 341.582 592.4 417.677 624.247L497.803 657.782C572.416 689.008 656.477 688.784 730.922 657.159L797.169 629.016C878.604 594.422 971.271 598.232 1049.59 639.395V639.395C1130.27 681.801 1226.04 684.501 1308.98 646.707L1358.24 624.262C1428.54 592.232 1508.48 588.553 1581.42 613.993L1847.01 706.619" stroke="#FFDDD9" stroke-width="2"/>
</g>
<defs>
<clipPath id="clip0">
<rect width="1920" height="150" fill="white" transform="translate(0 482)"/>
</clipPath>
</defs>
</svg>
